<svg version="1.1" xmlns="http://www.w3.org/2000/svg" xmlns:xlink="http://www.w3.org/1999/xlink" width="767" height="844"><defs/><g><text fill="#eeeeee" stroke="none" font-family="Arial" font-size="24px" font-style="normal" font-weight="normal" text-decoration="none" x="0" y="0">UNREGISTERED</text><text fill="#eeeeee" stroke="none" font-family="Arial" font-size="24px" font-style="normal" font-weight="normal" text-decoration="none" x="0" y="30">UNREGISTERED</text><text fill="#eeeeee" stroke="none" font-family="Arial" font-size="24px" font-style="normal" font-weight="normal" text-decoration="none" x="0" y="60">UNREGISTERED</text><text fill="#eeeeee" stroke="none" font-family="Arial" font-size="24px" font-style="normal" font-weight="normal" text-decoration="none" x="0" y="90">UNREGISTERED</text><text fill="#eeeeee" stroke="none" font-family="Arial" font-size="24px" font-style="normal" font-weight="normal" text-decoration="none" x="0" y="120">UNREGISTERED</text><text fill="#eeeeee" stroke="none" font-family="Arial" font-size="24px" font-style="normal" font-weight="normal" text-decoration="none" x="0" y="150">UNREGISTERED</text><text fill="#eeeeee" stroke="none" font-family="Arial" font-size="24px" font-style="normal" font-weight="normal" text-decoration="none" x="0" y="180">UNREGISTERED</text><text fill="#eeeeee" stroke="none" font-family="Arial" font-size="24px" font-style="normal" font-weight="normal" text-decoration="none" x="0" y="210">UNREGISTERED</text><text fill="#eeeeee" stroke="none" font-family="Arial" font-size="24px" font-style="normal" font-weight="normal" text-decoration="none" x="0" y="240">UNREGISTERED</text><text fill="#eeeeee" stroke="none" font-family="Arial" font-size="24px" font-style="normal" font-weight="normal" text-decoration="none" x="0" y="270">UNREGISTERED</text><text fill="#eeeeee" stroke="none" font-family="Arial" font-size="24px" font-style="normal" font-weight="normal" text-decoration="none" x="0" y="300">UNREGISTERED</text><text fill="#eeeeee" stroke="none" font-family="Arial" font-size="24px" font-style="normal" font-weight="normal" text-decoration="none" x="0" y="330">UNREGISTERED</text><text fill="#eeeeee" stroke="none" font-family="Arial" font-size="24px" font-style="normal" font-weight="normal" text-decoration="none" x="0" y="360">UNREGISTERED</text><text fill="#eeeeee" stroke="none" font-family="Arial" font-size="24px" font-style="normal" font-weight="normal" text-decoration="none" x="0" y="390">UNREGISTERED</text><text fill="#eeeeee" stroke="none" font-family="Arial" font-size="24px" font-style="normal" font-weight="normal" text-decoration="none" x="0" y="420">UNREGISTERED</text><text fill="#eeeeee" stroke="none" font-family="Arial" font-size="24px" font-style="normal" font-weight="normal" text-decoration="none" x="0" y="450">UNREGISTERED</text><text fill="#eeeeee" stroke="none" font-family="Arial" font-size="24px" font-style="normal" font-weight="normal" text-decoration="none" x="0" y="480">UNREGISTERED</text><text fill="#eeeeee" stroke="none" font-family="Arial" font-size="24px" font-style="normal" font-weight="normal" text-decoration="none" x="0" y="510">UNREGISTERED</text><text fill="#eeeeee" stroke="none" font-family="Arial" font-size="24px" font-style="normal" font-weight="normal" text-decoration="none" x="0" y="540">UNREGISTERED</text><text fill="#eeeeee" stroke="none" font-family="Arial" font-size="24px" font-style="normal" font-weight="normal" text-decoration="none" x="0" y="570">UNREGISTERED</text><text fill="#eeeeee" stroke="none" font-family="Arial" font-size="24px" font-style="normal" font-weight="normal" text-decoration="none" x="0" y="600">UNREGISTERED</text><text fill="#eeeeee" stroke="none" font-family="Arial" font-size="24px" font-style="normal" font-weight="normal" text-decoration="none" x="0" y="630">UNREGISTERED</text><text fill="#eeeeee" stroke="none" font-family="Arial" font-size="24px" font-style="normal" font-weight="normal" text-decoration="none" x="0" y="660">UNREGISTERED</text><text fill="#eeeeee" stroke="none" font-family="Arial" font-size="24px" font-style="normal" font-weight="normal" text-decoration="none" x="0" y="690">UNREGISTERED</text><text fill="#eeeeee" stroke="none" font-family="Arial" font-size="24px" font-style="normal" font-weight="normal" text-decoration="none" x="0" y="720">UNREGISTERED</text><text fill="#eeeeee" stroke="none" font-family="Arial" font-size="24px" font-style="normal" font-weight="normal" text-decoration="none" x="0" y="750">UNREGISTERED</text><text fill="#eeeeee" stroke="none" font-family="Arial" font-size="24px" font-style="normal" font-weight="normal" text-decoration="none" x="0" y="780">UNREGISTERED</text><text fill="#eeeeee" stroke="none" font-family="Arial" font-size="24px" font-style="normal" font-weight="normal" text-decoration="none" x="0" y="810">UNREGISTERED</text><text fill="#eeeeee" stroke="none" font-family="Arial" font-size="24px" font-style="normal" font-weight="normal" text-decoration="none" x="0" y="840">UNREGISTERED</text><text fill="#eeeeee" stroke="none" font-family="Arial" font-size="24px" font-style="normal" font-weight="normal" text-decoration="none" x="200" y="0">UNREGISTERED</text><text fill="#eeeeee" stroke="none" font-family="Arial" font-size="24px" font-style="normal" font-weight="normal" text-decoration="none" x="200" y="30">UNREGISTERED</text><text fill="#eeeeee" stroke="none" font-family="Arial" font-size="24px" font-style="normal" font-weight="normal" text-decoration="none" x="200" y="60">UNREGISTERED</text><text fill="#eeeeee" stroke="none" font-family="Arial" font-size="24px" font-style="normal" font-weight="normal" text-decoration="none" x="200" y="90">UNREGISTERED</text><text fill="#eeeeee" stroke="none" font-family="Arial" font-size="24px" font-style="normal" font-weight="normal" text-decoration="none" x="200" y="120">UNREGISTERED</text><text fill="#eeeeee" stroke="none" font-family="Arial" font-size="24px" font-style="normal" font-weight="normal" text-decoration="none" x="200" y="150">UNREGISTERED</text><text fill="#eeeeee" stroke="none" font-family="Arial" font-size="24px" font-style="normal" font-weight="normal" text-decoration="none" x="200" y="180">UNREGISTERED</text><text fill="#eeeeee" stroke="none" font-family="Arial" font-size="24px" font-style="normal" font-weight="normal" text-decoration="none" x="200" y="210">UNREGISTERED</text><text fill="#eeeeee" stroke="none" font-family="Arial" font-size="24px" font-style="normal" font-weight="normal" text-decoration="none" x="200" y="240">UNREGISTERED</text><text fill="#eeeeee" stroke="none" font-family="Arial" font-size="24px" font-style="normal" font-weight="normal" text-decoration="none" x="200" y="270">UNREGISTERED</text><text fill="#eeeeee" stroke="none" font-family="Arial" font-size="24px" font-style="normal" font-weight="normal" text-decoration="none" x="200" y="300">UNREGISTERED</text><text fill="#eeeeee" stroke="none" font-family="Arial" font-size="24px" font-style="normal" font-weight="normal" text-decoration="none" x="200" y="330">UNREGISTERED</text><text fill="#eeeeee" stroke="none" font-family="Arial" font-size="24px" font-style="normal" font-weight="normal" text-decoration="none" x="200" y="360">UNREGISTERED</text><text fill="#eeeeee" stroke="none" font-family="Arial" font-size="24px" font-style="normal" font-weight="normal" text-decoration="none" x="200" y="390">UNREGISTERED</text><text fill="#eeeeee" stroke="none" font-family="Arial" font-size="24px" font-style="normal" font-weight="normal" text-decoration="none" x="200" y="420">UNREGISTERED</text><text fill="#eeeeee" stroke="none" font-family="Arial" font-size="24px" font-style="normal" font-weight="normal" text-decoration="none" x="200" y="450">UNREGISTERED</text><text fill="#eeeeee" stroke="none" font-family="Arial" font-size="24px" font-style="normal" font-weight="normal" text-decoration="none" x="200" y="480">UNREGISTERED</text><text fill="#eeeeee" stroke="none" font-family="Arial" font-size="24px" font-style="normal" font-weight="normal" text-decoration="none" x="200" y="510">UNREGISTERED</text><text fill="#eeeeee" stroke="none" font-family="Arial" font-size="24px" font-style="normal" font-weight="normal" text-decoration="none" x="200" y="540">UNREGISTERED</text><text fill="#eeeeee" stroke="none" font-family="Arial" font-size="24px" font-style="normal" font-weight="normal" text-decoration="none" x="200" y="570">UNREGISTERED</text><text fill="#eeeeee" stroke="none" font-family="Arial" font-size="24px" font-style="normal" font-weight="normal" text-decoration="none" x="200" y="600">UNREGISTERED</text><text fill="#eeeeee" stroke="none" font-family="Arial" font-size="24px" font-style="normal" font-weight="normal" text-decoration="none" x="200" y="630">UNREGISTERED</text><text fill="#eeeeee" stroke="none" font-family="Arial" font-size="24px" font-style="normal" font-weight="normal" text-decoration="none" x="200" y="660">UNREGISTERED</text><text fill="#eeeeee" stroke="none" font-family="Arial" font-size="24px" font-style="normal" font-weight="normal" text-decoration="none" x="200" y="690">UNREGISTERED</text><text fill="#eeeeee" stroke="none" font-family="Arial" font-size="24px" font-style="normal" font-weight="normal" text-decoration="none" x="200" y="720">UNREGISTERED</text><text fill="#eeeeee" stroke="none" font-family="Arial" font-size="24px" font-style="normal" font-weight="normal" text-decoration="none" x="200" y="750">UNREGISTERED</text><text fill="#eeeeee" stroke="none" font-family="Arial" font-size="24px" font-style="normal" font-weight="normal" text-decoration="none" x="200" y="780">UNREGISTERED</text><text fill="#eeeeee" stroke="none" font-family="Arial" font-size="24px" font-style="normal" font-weight="normal" text-decoration="none" x="200" y="810">UNREGISTERED</text><text fill="#eeeeee" stroke="none" font-family="Arial" font-size="24px" font-style="normal" font-weight="normal" text-decoration="none" x="200" y="840">UNREGISTERED</text><text fill="#eeeeee" stroke="none" font-family="Arial" font-size="24px" font-style="normal" font-weight="normal" text-decoration="none" x="400" y="0">UNREGISTERED</text><text fill="#eeeeee" stroke="none" font-family="Arial" font-size="24px" font-style="normal" font-weight="normal" text-decoration="none" x="400" y="30">UNREGISTERED</text><text fill="#eeeeee" stroke="none" font-family="Arial" font-size="24px" font-style="normal" font-weight="normal" text-decoration="none" x="400" y="60">UNREGISTERED</text><text fill="#eeeeee" stroke="none" font-family="Arial" font-size="24px" font-style="normal" font-weight="normal" text-decoration="none" x="400" y="90">UNREGISTERED</text><text fill="#eeeeee" stroke="none" font-family="Arial" font-size="24px" font-style="normal" font-weight="normal" text-decoration="none" x="400" y="120">UNREGISTERED</text><text fill="#eeeeee" stroke="none" font-family="Arial" font-size="24px" font-style="normal" font-weight="normal" text-decoration="none" x="400" y="150">UNREGISTERED</text><text fill="#eeeeee" stroke="none" font-family="Arial" font-size="24px" font-style="normal" font-weight="normal" text-decoration="none" x="400" y="180">UNREGISTERED</text><text fill="#eeeeee" stroke="none" font-family="Arial" font-size="24px" font-style="normal" font-weight="normal" text-decoration="none" x="400" y="210">UNREGISTERED</text><text fill="#eeeeee" stroke="none" font-family="Arial" font-size="24px" font-style="normal" font-weight="normal" text-decoration="none" x="400" y="240">UNREGISTERED</text><text fill="#eeeeee" stroke="none" font-family="Arial" font-size="24px" font-style="normal" font-weight="normal" text-decoration="none" x="400" y="270">UNREGISTERED</text><text fill="#eeeeee" stroke="none" font-family="Arial" font-size="24px" font-style="normal" font-weight="normal" text-decoration="none" x="400" y="300">UNREGISTERED</text><text fill="#eeeeee" stroke="none" font-family="Arial" font-size="24px" font-style="normal" font-weight="normal" text-decoration="none" x="400" y="330">UNREGISTERED</text><text fill="#eeeeee" stroke="none" font-family="Arial" font-size="24px" font-style="normal" font-weight="normal" text-decoration="none" x="400" y="360">UNREGISTERED</text><text fill="#eeeeee" stroke="none" font-family="Arial" font-size="24px" font-style="normal" font-weight="normal" text-decoration="none" x="400" y="390">UNREGISTERED</text><text fill="#eeeeee" stroke="none" font-family="Arial" font-size="24px" font-style="normal" font-weight="normal" text-decoration="none" x="400" y="420">UNREGISTERED</text><text fill="#eeeeee" stroke="none" font-family="Arial" font-size="24px" font-style="normal" font-weight="normal" text-decoration="none" x="400" y="450">UNREGISTERED</text><text fill="#eeeeee" stroke="none" font-family="Arial" font-size="24px" font-style="normal" font-weight="normal" text-decoration="none" x="400" y="480">UNREGISTERED</text><text fill="#eeeeee" stroke="none" font-family="Arial" font-size="24px" font-style="normal" font-weight="normal" text-decoration="none" x="400" y="510">UNREGISTERED</text><text fill="#eeeeee" stroke="none" font-family="Arial" font-size="24px" font-style="normal" font-weight="normal" text-decoration="none" x="400" y="540">UNREGISTERED</text><text fill="#eeeeee" stroke="none" font-family="Arial" font-size="24px" font-style="normal" font-weight="normal" text-decoration="none" x="400" y="570">UNREGISTERED</text><text fill="#eeeeee" stroke="none" font-family="Arial" font-size="24px" font-style="normal" font-weight="normal" text-decoration="none" x="400" y="600">UNREGISTERED</text><text fill="#eeeeee" stroke="none" font-family="Arial" font-size="24px" font-style="normal" font-weight="normal" text-decoration="none" x="400" y="630">UNREGISTERED</text><text fill="#eeeeee" stroke="none" font-family="Arial" font-size="24px" font-style="normal" font-weight="normal" text-decoration="none" x="400" y="660">UNREGISTERED</text><text fill="#eeeeee" stroke="none" font-family="Arial" font-size="24px" font-style="normal" font-weight="normal" text-decoration="none" x="400" y="690">UNREGISTERED</text><text fill="#eeeeee" stroke="none" font-family="Arial" font-size="24px" font-style="normal" font-weight="normal" text-decoration="none" x="400" y="720">UNREGISTERED</text><text fill="#eeeeee" stroke="none" font-family="Arial" font-size="24px" font-style="normal" font-weight="normal" text-decoration="none" x="400" y="750">UNREGISTERED</text><text fill="#eeeeee" stroke="none" font-family="Arial" font-size="24px" font-style="normal" font-weight="normal" text-decoration="none" x="400" y="780">UNREGISTERED</text><text fill="#eeeeee" stroke="none" font-family="Arial" font-size="24px" font-style="normal" font-weight="normal" text-decoration="none" x="400" y="810">UNREGISTERED</text><text fill="#eeeeee" stroke="none" font-family="Arial" font-size="24px" font-style="normal" font-weight="normal" text-decoration="none" x="400" y="840">UNREGISTERED</text><text fill="#eeeeee" stroke="none" font-family="Arial" font-size="24px" font-style="normal" font-weight="normal" text-decoration="none" x="600" y="0">UNREGISTERED</text><text fill="#eeeeee" stroke="none" font-family="Arial" font-size="24px" font-style="normal" font-weight="normal" text-decoration="none" x="600" y="30">UNREGISTERED</text><text fill="#eeeeee" stroke="none" font-family="Arial" font-size="24px" font-style="normal" font-weight="normal" text-decoration="none" x="600" y="60">UNREGISTERED</text><text fill="#eeeeee" stroke="none" font-family="Arial" font-size="24px" font-style="normal" font-weight="normal" text-decoration="none" x="600" y="90">UNREGISTERED</text><text fill="#eeeeee" stroke="none" font-family="Arial" font-size="24px" font-style="normal" font-weight="normal" text-decoration="none" x="600" y="120">UNREGISTERED</text><text fill="#eeeeee" stroke="none" font-family="Arial" font-size="24px" font-style="normal" font-weight="normal" text-decoration="none" x="600" y="150">UNREGISTERED</text><text fill="#eeeeee" stroke="none" font-family="Arial" font-size="24px" font-style="normal" font-weight="normal" text-decoration="none" x="600" y="180">UNREGISTERED</text><text fill="#eeeeee" stroke="none" font-family="Arial" font-size="24px" font-style="normal" font-weight="normal" text-decoration="none" x="600" y="210">UNREGISTERED</text><text fill="#eeeeee" stroke="none" font-family="Arial" font-size="24px" font-style="normal" font-weight="normal" text-decoration="none" x="600" y="240">UNREGISTERED</text><text fill="#eeeeee" stroke="none" font-family="Arial" font-size="24px" font-style="normal" font-weight="normal" text-decoration="none" x="600" y="270">UNREGISTERED</text><text fill="#eeeeee" stroke="none" font-family="Arial" font-size="24px" font-style="normal" font-weight="normal" text-decoration="none" x="600" y="300">UNREGISTERED</text><text fill="#eeeeee" stroke="none" font-family="Arial" font-size="24px" font-style="normal" font-weight="normal" text-decoration="none" x="600" y="330">UNREGISTERED</text><text fill="#eeeeee" stroke="none" font-family="Arial" font-size="24px" font-style="normal" font-weight="normal" text-decoration="none" x="600" y="360">UNREGISTERED</text><text fill="#eeeeee" stroke="none" font-family="Arial" font-size="24px" font-style="normal" font-weight="normal" text-decoration="none" x="600" y="390">UNREGISTERED</text><text fill="#eeeeee" stroke="none" font-family="Arial" font-size="24px" font-style="normal" font-weight="normal" text-decoration="none" x="600" y="420">UNREGISTERED</text><text fill="#eeeeee" stroke="none" font-family="Arial" font-size="24px" font-style="normal" font-weight="normal" text-decoration="none" x="600" y="450">UNREGISTERED</text><text fill="#eeeeee" stroke="none" font-family="Arial" font-size="24px" font-style="normal" font-weight="normal" text-decoration="none" x="600" y="480">UNREGISTERED</text><text fill="#eeeeee" stroke="none" font-family="Arial" font-size="24px" font-style="normal" font-weight="normal" text-decoration="none" x="600" y="510">UNREGISTERED</text><text fill="#eeeeee" stroke="none" font-family="Arial" font-size="24px" font-style="normal" font-weight="normal" text-decoration="none" x="600" y="540">UNREGISTERED</text><text fill="#eeeeee" stroke="none" font-family="Arial" font-size="24px" font-style="normal" font-weight="normal" text-decoration="none" x="600" y="570">UNREGISTERED</text><text fill="#eeeeee" stroke="none" font-family="Arial" font-size="24px" font-style="normal" font-weight="normal" text-decoration="none" x="600" y="600">UNREGISTERED</text><text fill="#eeeeee" stroke="none" font-family="Arial" font-size="24px" font-style="normal" font-weight="normal" text-decoration="none" x="600" y="630">UNREGISTERED</text><text fill="#eeeeee" stroke="none" font-family="Arial" font-size="24px" font-style="normal" font-weight="normal" text-decoration="none" x="600" y="660">UNREGISTERED</text><text fill="#eeeeee" stroke="none" font-family="Arial" font-size="24px" font-style="normal" font-weight="normal" text-decoration="none" x="600" y="690">UNREGISTERED</text><text fill="#eeeeee" stroke="none" font-family="Arial" font-size="24px" font-style="normal" font-weight="normal" text-decoration="none" x="600" y="720">UNREGISTERED</text><text fill="#eeeeee" stroke="none" font-family="Arial" font-size="24px" font-style="normal" font-weight="normal" text-decoration="none" x="600" y="750">UNREGISTERED</text><text fill="#eeeeee" stroke="none" font-family="Arial" font-size="24px" font-style="normal" font-weight="normal" text-decoration="none" x="600" y="780">UNREGISTERED</text><text fill="#eeeeee" stroke="none" font-family="Arial" font-size="24px" font-style="normal" font-weight="normal" text-decoration="none" x="600" y="810">UNREGISTERED</text><text fill="#eeeeee" stroke="none" font-family="Arial" font-size="24px" font-style="normal" font-weight="normal" text-decoration="none" x="600" y="840">UNREGISTERED</text><g transform="translate(-3,-6) scale(1,1)"><rect fill="#ffffff" stroke="none" x="13" y="16" width="243" height="21"/></g><g transform="translate(-3,-6) scale(1,1)"><path fill="none" stroke="#000000" d="M 13 16 L 256 16 L 256 37 L 13 37 L 13 16 Z Z" stroke-miterlimit="10" stroke-width="2"/></g><g transform="translate(-3,-6) scale(1,1)"><path fill="none" stroke="#000000" d="M 13 832 L 13 16 L 256 16 L 256 832" stroke-miterlimit="10" stroke-width="2"/></g><g transform="translate(-3,-6) scale(1,1)"><g><path fill="none" stroke="none"/><text fill="#000000" stroke="none" font-family="Arial" font-size="13px" font-style="normal" font-weight="normal" text-decoration="none" x="105.602294921875" y="30">Utilisateur</text></g></g><g transform="translate(-3,-6) scale(1,1)"><rect fill="#ffffff" stroke="none" x="256" y="16" width="304" height="21"/></g><g transform="translate(-3,-6) scale(1,1)"><path fill="none" stroke="#000000" d="M 256 16 L 560 16 L 560 37 L 256 37 L 256 16 Z Z" stroke-miterlimit="10" stroke-width="2"/></g><g transform="translate(-3,-6) scale(1,1)"><path fill="none" stroke="#000000" d="M 256 840 L 256 16 L 560 16 L 560 840" stroke-miterlimit="10" stroke-width="2"/></g><g transform="translate(-3,-6) scale(1,1)"><g><path fill="none" stroke="none"/><text fill="#000000" stroke="none" font-family="Arial" font-size="13px" font-style="normal" font-weight="normal" text-decoration="none" x="401.858642578125" y="30">SI</text></g></g><g transform="translate(-3,-6) scale(1,1)"><rect fill="#ffffff" stroke="none" x="560" y="16" width="200" height="21"/></g><g transform="translate(-3,-6) scale(1,1)"><path fill="none" stroke="#000000" d="M 560 16 L 760 16 L 760 37 L 560 37 L 560 16 Z Z" stroke-miterlimit="10" stroke-width="2"/></g><g transform="translate(-3,-6) scale(1,1)"><path fill="none" stroke="#000000" d="M 560 840 L 560 16 L 760 16 L 760 840" stroke-miterlimit="10" stroke-width="2"/></g><g transform="translate(-3,-6) scale(1,1)"><g><path fill="none" stroke="none"/><text fill="#000000" stroke="none" font-family="Arial" font-size="13px" font-style="normal" font-weight="normal" text-decoration="none" x="646.2763671875" y="30">BDD</text></g></g><g transform="translate(-3,-6) scale(1,1)"><path fill="#C0C0C0" stroke="none" d="M 60 228 L 228.87353515625 228 Q 238.87353515625 228 238.87353515625 238 L 238.87353515625 258 Q 238.87353515625 268 228.87353515625 268 L 60 268 Q 50 268 50 258 L 50 238 Q 50 228 60 228 Z" opacity="0.2"/></g><g transform="translate(-3,-6) scale(1,1)"><path fill="#ffffff" stroke="none" d="M 53 221 L 221.87353515625 221 Q 231.87353515625 221 231.87353515625 231 L 231.87353515625 251 Q 231.87353515625 261 221.87353515625 261 L 53 261 Q 43 261 43 251 L 43 231 Q 43 221 53 221 Z"/></g><g transform="translate(-3,-6) scale(1,1)"><path fill="none" stroke="#000000" d="M 53 221 L 221.87353515625 221 Q 231.87353515625 221 231.87353515625 231 L 231.87353515625 251 Q 231.87353515625 261 221.87353515625 261 L 53 261 Q 43 261 43 251 L 43 231 Q 43 221 53 221 Z" stroke-miterlimit="10"/></g><g transform="translate(-3,-6) scale(1,1)"><g><path fill="none" stroke="none"/><text fill="#000000" stroke="none" font-family="Arial" font-size="13px" font-style="normal" font-weight="bold" text-decoration="none" x="47.5" y="239">Remplir le formulaire de note</text></g></g><g transform="translate(-3,-6) scale(1,1)"><path fill="#C0C0C0" stroke="none" d="M 400 805.5 C 400 798.59644 405.59644 793 412.5 793 C 419.40356 793 425 798.59644 425 805.5 C 425 812.40356 419.40356 818 412.5 818 C 405.59644 818 400 812.40356 400 805.5 Z" opacity="0.2"/></g><g transform="translate(-3,-6) scale(1,1)"><path fill="none" stroke="#000000" d="M 393 798.5 C 393 791.59644 398.59644 786 405.5 786 C 412.40356 786 418 791.59644 418 798.5 C 418 805.40356 412.40356 811 405.5 811 C 398.59644 811 393 805.40356 393 798.5 Z" stroke-miterlimit="10"/></g><g transform="translate(-3,-6) scale(1,1)"><path fill="#000000" stroke="none" d="M 398 798.5 C 398 794.357864 401.357864 791 405.5 791 C 409.642136 791 413 794.357864 413 798.5 C 413 802.642136 409.642136 806 405.5 806 C 401.357864 806 398 802.642136 398 798.5 Z"/></g><g transform="translate(-3,-6) scale(1,1)"><path fill="#C0C0C0" stroke="none" d="M 311 700 L 513.865234375 700 Q 523.865234375 700 523.865234375 710 L 523.865234375 730 Q 523.865234375 740 513.865234375 740 L 311 740 Q 301 740 301 730 L 301 710 Q 301 700 311 700 Z" opacity="0.2"/></g><g transform="translate(-3,-6) scale(1,1)"><path fill="#ffffff" stroke="none" d="M 304 693 L 506.865234375 693 Q 516.865234375 693 516.865234375 703 L 516.865234375 723 Q 516.865234375 733 506.865234375 733 L 304 733 Q 294 733 294 723 L 294 703 Q 294 693 304 693 Z"/></g><g transform="translate(-3,-6) scale(1,1)"><path fill="none" stroke="#000000" d="M 304 693 L 506.865234375 693 Q 516.865234375 693 516.865234375 703 L 516.865234375 723 Q 516.865234375 733 506.865234375 733 L 304 733 Q 294 733 294 723 L 294 703 Q 294 693 304 693 Z" stroke-miterlimit="10"/></g><g transform="translate(-3,-6) scale(1,1)"><g><path fill="none" stroke="none"/><text fill="#000000" stroke="none" font-family="Arial" font-size="13px" font-style="normal" font-weight="bold" text-decoration="none" x="319.475830078125" y="711">Allez sur l édition de la note</text></g></g><g transform="translate(-3,-6) scale(1,1)"><path fill="#C0C0C0" stroke="none" d="M 292 607 L 532.62109375 607 Q 542.62109375 607 542.62109375 617 L 542.62109375 637 Q 542.62109375 647 532.62109375 647 L 292 647 Q 282 647 282 637 L 282 617 Q 282 607 292 607 Z" opacity="0.2"/></g><g transform="translate(-3,-6) scale(1,1)"><path fill="#ffffff" stroke="none" d="M 285 600 L 525.62109375 600 Q 535.62109375 600 535.62109375 610 L 535.62109375 630 Q 535.62109375 640 525.62109375 640 L 285 640 Q 275 640 275 630 L 275 610 Q 275 600 285 600 Z"/></g><g transform="translate(-3,-6) scale(1,1)"><path fill="none" stroke="#000000" d="M 285 600 L 525.62109375 600 Q 535.62109375 600 535.62109375 610 L 535.62109375 630 Q 535.62109375 640 525.62109375 640 L 285 640 Q 275 640 275 630 L 275 610 Q 275 600 285 600 Z" stroke-miterlimit="10"/></g><g transform="translate(-3,-6) scale(1,1)"><g><path fill="none" stroke="none"/><text fill="#000000" stroke="none" font-family="Arial" font-size="13px" font-style="normal" font-weight="bold" text-decoration="none" x="279.5" y="618">Afficher un message d'accomplissement</text></g></g><g transform="translate(-3,-6) scale(1,1)"><path fill="#C0C0C0" stroke="none" d="M 320 485 L 489.095703125 485 Q 499.095703125 485 499.095703125 495 L 499.095703125 515 Q 499.095703125 525 489.095703125 525 L 320 525 Q 310 525 310 515 L 310 495 Q 310 485 320 485 Z" opacity="0.2"/></g><g transform="translate(-3,-6) scale(1,1)"><path fill="#ffffff" stroke="none" d="M 313 478 L 482.095703125 478 Q 492.095703125 478 492.095703125 488 L 492.095703125 508 Q 492.095703125 518 482.095703125 518 L 313 518 Q 303 518 303 508 L 303 488 Q 303 478 313 478 Z"/></g><g transform="translate(-3,-6) scale(1,1)"><path fill="none" stroke="#000000" d="M 313 478 L 482.095703125 478 Q 492.095703125 478 492.095703125 488 L 492.095703125 508 Q 492.095703125 518 482.095703125 518 L 313 518 Q 303 518 303 508 L 303 488 Q 303 478 313 478 Z" stroke-miterlimit="10"/></g><g transform="translate(-3,-6) scale(1,1)"><g><path fill="none" stroke="none"/><text fill="#000000" stroke="none" font-family="Arial" font-size="13px" font-style="normal" font-weight="bold" text-decoration="none" x="307.5" y="496">Afficher un message d'erreur</text></g></g><g transform="translate(-3,-6) scale(1,1)"><path fill="#C0C0C0" stroke="none" d="M 336 321 L 473.82080078125 321 Q 483.82080078125 321 483.82080078125 331 L 483.82080078125 351 Q 483.82080078125 361 473.82080078125 361 L 336 361 Q 326 361 326 351 L 326 331 Q 326 321 336 321 Z" opacity="0.2"/></g><g transform="translate(-3,-6) scale(1,1)"><path fill="#ffffff" stroke="none" d="M 329 314 L 466.82080078125 314 Q 476.82080078125 314 476.82080078125 324 L 476.82080078125 344 Q 476.82080078125 354 466.82080078125 354 L 329 354 Q 319 354 319 344 L 319 324 Q 319 314 329 314 Z"/></g><g transform="translate(-3,-6) scale(1,1)"><path fill="none" stroke="#000000" d="M 329 314 L 466.82080078125 314 Q 476.82080078125 314 476.82080078125 324 L 476.82080078125 344 Q 476.82080078125 354 466.82080078125 354 L 329 354 Q 319 354 319 344 L 319 324 Q 319 314 329 314 Z" stroke-miterlimit="10"/></g><g transform="translate(-3,-6) scale(1,1)"><g><path fill="none" stroke="none"/><text fill="#000000" stroke="none" font-family="Arial" font-size="13px" font-style="normal" font-weight="bold" text-decoration="none" x="323.5" y="332">Vérifier les informations</text></g></g><g transform="translate(-3,-6) scale(1,1)"><path fill="#C0C0C0" stroke="none" d="M 320 135 L 489.5908203125 135 Q 499.5908203125 135 499.5908203125 145 L 499.5908203125 165 Q 499.5908203125 175 489.5908203125 175 L 320 175 Q 310 175 310 165 L 310 145 Q 310 135 320 135 Z" opacity="0.2"/></g><g transform="translate(-3,-6) scale(1,1)"><path fill="#ffffff" stroke="none" d="M 313 128 L 482.5908203125 128 Q 492.5908203125 128 492.5908203125 138 L 492.5908203125 158 Q 492.5908203125 168 482.5908203125 168 L 313 168 Q 303 168 303 158 L 303 138 Q 303 128 313 128 Z"/></g><g transform="translate(-3,-6) scale(1,1)"><path fill="none" stroke="#000000" d="M 313 128 L 482.5908203125 128 Q 492.5908203125 128 492.5908203125 138 L 492.5908203125 158 Q 492.5908203125 168 482.5908203125 168 L 313 168 Q 303 168 303 158 L 303 138 Q 303 128 313 128 Z" stroke-miterlimit="10"/></g><g transform="translate(-3,-6) scale(1,1)"><g><path fill="none" stroke="none"/><text fill="#000000" stroke="none" font-family="Arial" font-size="13px" font-style="normal" font-weight="bold" text-decoration="none" x="307.5" y="146">Afficher le formulaire de note</text></g></g><g transform="translate(-3,-6) scale(1,1)"><path fill="#C0C0C0" stroke="none" d="M 395 72.5 C 395 67.2532944 399.2532944 63 404.5 63 C 409.7467056 63 414 67.2532944 414 72.5 C 414 77.7467056 409.7467056 82 404.5 82 C 399.2532944 82 395 77.7467056 395 72.5 Z" opacity="0.2"/></g><g transform="translate(-3,-6) scale(1,1)"><path fill="#000000" stroke="none" d="M 388 65.5 C 388 60.2532944 392.2532944 56 397.5 56 C 402.7467056 56 407 60.2532944 407 65.5 C 407 70.7467056 402.7467056 75 397.5 75 C 392.2532944 75 388 70.7467056 388 65.5 Z"/></g><g transform="translate(-3,-6) scale(1,1)"><path fill="#C0C0C0" stroke="none" d="M 618 487 L 721.8671875 487 Q 731.8671875 487 731.8671875 497 L 731.8671875 517 Q 731.8671875 527 721.8671875 527 L 618 527 Q 608 527 608 517 L 608 497 Q 608 487 618 487 Z" opacity="0.2"/></g><g transform="translate(-3,-6) scale(1,1)"><path fill="#ffffff" stroke="none" d="M 611 480 L 714.8671875 480 Q 724.8671875 480 724.8671875 490 L 724.8671875 510 Q 724.8671875 520 714.8671875 520 L 611 520 Q 601 520 601 510 L 601 490 Q 601 480 611 480 Z"/></g><g transform="translate(-3,-6) scale(1,1)"><path fill="none" stroke="#000000" d="M 611 480 L 714.8671875 480 Q 724.8671875 480 724.8671875 490 L 724.8671875 510 Q 724.8671875 520 714.8671875 520 L 611 520 Q 601 520 601 510 L 601 490 Q 601 480 611 480 Z" stroke-miterlimit="10"/></g><g transform="translate(-3,-6) scale(1,1)"><g><path fill="none" stroke="none"/><text fill="#000000" stroke="none" font-family="Arial" font-size="13px" font-style="normal" font-weight="bold" text-decoration="none" x="605.5" y="498">Enregistrer la note</text></g></g><g transform="translate(-3,-6) scale(1,1)"><path fill="#C0C0C0" stroke="none" d="M 393 423.5 L 404.5 414 L 415 423.5 L 404.5 432 L 393 423.5" opacity="0.2"/></g><g transform="translate(-3,-6) scale(1,1)"><path fill="#ffffff" stroke="none" d="M 386 416 L 397 407 L 408 416 L 397 425 L 386 416"/></g><g transform="translate(-3,-6) scale(1,1)"><path fill="none" stroke="#000000" d="M 386 416 L 397 407 L 408 416 L 397 425 L 386 416 L 386 416" stroke-miterlimit="10"/></g><g transform="translate(-3,-6) scale(1,1)"><path fill="none" stroke="#000000" d="M 397 76 L 397 127" stroke-miterlimit="10"/></g><g transform="translate(-3,-6) scale(1,1)"><path fill="none" stroke="#000000" d="M 392.790482243984 116.83732514237585 L 397 127 L 401.209517756016 116.83732514237585" stroke-miterlimit="10"/></g><g transform="translate(-3,-6) scale(1,1)"><path fill="none" stroke="#000000" d="M 302 150 L 160 152 L 142 220" stroke-miterlimit="10"/></g><g transform="translate(-3,-6) scale(1,1)"><path fill="none" stroke="#000000" d="M 140.53119006746283 209.0985048097942 L 142 220 L 148.66991571049587 211.25287336236175" stroke-miterlimit="10"/></g><g transform="translate(-3,-6) scale(1,1)"><path fill="none" stroke="#000000" d="M 233 241 L 360 240 L 389 313" stroke-miterlimit="10"/></g><g transform="translate(-3,-6) scale(1,1)"><path fill="none" stroke="#000000" d="M 381.3358705595492 305.10942841614025 L 389 313 L 389.16011877515086 302.0011654263807" stroke-miterlimit="10"/></g><g transform="translate(-3,-6) scale(1,1)"><path fill="none" stroke="#000000" d="M 397 355 L 397 406" stroke-miterlimit="10"/></g><g transform="translate(-3,-6) scale(1,1)"><path fill="none" stroke="#000000" d="M 392.790482243984 395.83732514237585 L 397 406 L 401.209517756016 395.83732514237585" stroke-miterlimit="10"/></g><g transform="translate(-3,-6) scale(1,1)"><path fill="none" stroke="#000000" d="M 397 426 L 397 477" stroke-miterlimit="10"/></g><g transform="translate(-3,-6) scale(1,1)"><path fill="none" stroke="#000000" d="M 392.790482243984 466.83732514237585 L 397 477 L 401.209517756016 466.83732514237585" stroke-miterlimit="10"/></g><g transform="translate(-3,-6) scale(1,1)"><path fill="none" stroke="#000000" d="M 653 521 L 640 552 L 432 552 L 413 599" stroke-miterlimit="10"/></g><g transform="translate(-3,-6) scale(1,1)"><path fill="none" stroke="#000000" d="M 412.90617424737457 588.0004001559992 L 413 599 L 420.71154681410013 591.1557635340371" stroke-miterlimit="10"/></g><g transform="translate(-3,-6) scale(1,1)"><path fill="none" stroke="#000000" d="M 405 641 L 405 692" stroke-miterlimit="10"/></g><g transform="translate(-3,-6) scale(1,1)"><path fill="none" stroke="#000000" d="M 400.790482243984 681.8373251423759 L 405 692 L 409.209517756016 681.8373251423759" stroke-miterlimit="10"/></g><g transform="translate(-3,-6) scale(1,1)"><path fill="none" stroke="#000000" d="M 405 734 L 405 785" stroke-miterlimit="10"/></g><g transform="translate(-3,-6) scale(1,1)"><path fill="none" stroke="#000000" d="M 400.790482243984 774.8373251423759 L 405 785 L 409.209517756016 774.8373251423759" stroke-miterlimit="10"/></g><g transform="translate(-3,-6) scale(1,1)"><path fill="none" stroke="#000000" d="M 409 416 L 632 416 L 655 479" stroke-miterlimit="10"/></g><g transform="translate(-3,-6) scale(1,1)"><path fill="none" stroke="#000000" d="M 647.5605712325194 470.8972288929292 L 655 479 L 655.4690538665724 468.01000507414795" stroke-miterlimit="10"/></g></g></svg>